# xmcd
#
# Track frame offsets: 
#        150
#        15617
#        34302
#        51365
#        62762
#        100107
#        117485
#        130892
#        153060
#        158417
#        165975
#        201407
#        213082
#
# Disc length: 3004 seconds
#
# Revision: 0
# Processed by: cddbd v1.4PL0 Copyright (c) Steve Scherf et al.
# Submitted via: ExactAudioCopy v0.95a4
#
DISCID=a50bba0d
DTITLE=Howe Gelb - Down Home 2002
DYEAR=2002
DGENRE=
TTITLE0=Spun
TTITLE1=Spin
TTITLE2=Getting It Made
TTITLE3=Trace
TTITLE4=Suite: Arizona (Spider Woman) and Unsung Sage
TTITLE5=Belly Of Fire
TTITLE6=Bored Lil´Devil
TTITLE7=Petey´s Lid
TTITLE8=Ogle Goggle
TTITLE9=Western Front
TTITLE10=Motion Detecter
TTITLE11=Caster´s Pet
TTITLE12=Tracing
EXTD=
EXTT0=
EXTT1=
EXTT2=
EXTT3=
EXTT4=
EXTT5=
EXTT6=
EXTT7=
EXTT8=
EXTT9=
EXTT10=
EXTT11=
EXTT12=
PLAYORDER=
